<svg width="24" height="24" viewBox="0 0 24 24" fill="none" xmlns="http://www.w3.org/2000/svg">
<g clip-path="url(#clip0_771_23)">
<path d="M2.87852 0.397949C1.55993 0.397949 0.487587 1.47044 0.487587 2.7867V21.1239C0.487587 22.4401 1.56001 23.5101 2.87852 23.5101H21.2095C22.5281 23.5101 23.6004 22.4401 23.6004 21.1239V2.7867C23.6004 1.47046 22.528 0.397949 21.2095 0.397949H2.87852Z" fill="white"/>
<path d="M21.2087 23.9998C22.8003 23.9998 24.0872 22.7104 24.0872 21.1237V2.78645C24.0872 1.19722 22.8003 -0.0897217 21.2087 -0.0897217H2.87774C1.28861 -0.0897217 -0.000778198 1.19726 -0.000778198 2.78645V21.1237C-0.000778198 22.7105 1.28857 23.9998 2.87774 23.9998H21.2087Z" fill="#231F20"/>
<path d="M10.9971 8.38312C10.9971 9.02174 10.4195 9.69691 9.66881 9.69691V20.4292C9.66881 21.9526 7.59219 21.9526 7.59219 20.4292V9.69691C6.861 9.69691 6.22485 9.13629 6.22485 8.28806V2.38457C6.22485 1.87025 6.96823 1.8532 6.96823 2.40407V6.76952H8.30632H8.25026V2.3724C8.25026 1.88004 8.94489 1.86296 8.94489 2.38946V6.76968H10.2732V2.37256C10.2732 1.88506 10.9971 1.868 10.9971 2.38962V8.38345L10.9971 8.38312Z" fill="white"/>
<path d="M17.5073 3.76164V20.4242C17.5073 21.9135 15.4258 21.8891 15.4258 20.4242V13.8163H14.3169V3.76164C14.3169 1.42418 17.5073 1.42418 17.5073 3.76164Z" fill="white"/>
</g>
<defs>
<clipPath id="clip0_771_23">
<rect width="24" height="24" fill="white"/>
</clipPath>
</defs>
</svg>
