<svg width="24" height="22" viewBox="0 0 24 22" fill="none" xmlns="http://www.w3.org/2000/svg">
<path d="M23.3443 4.801C22.6966 2.31835 20.6595 0.746164 17.8571 0.448021C17.6135 0.422105 17.3766 0.409546 17.1456 0.409546C14.7096 0.409546 12.9763 1.80982 11.9853 3.72366C10.9501 1.72628 9.18296 0.430761 6.60637 0.430825C6.43586 0.430825 6.26162 0.436506 6.08399 0.448034C3.52135 0.614289 1.31994 2.12268 0.626357 5.06305C-0.621277 10.3523 5.28408 15.7592 11.9853 21.0191C19.112 15.7949 24.6721 9.89 23.3443 4.801ZM16.7763 12.5847C15.8249 12.5846 14.8736 12.5852 13.9223 12.5845C13.9212 13.5335 13.9221 14.4829 13.9216 15.4321C13.9232 15.6584 13.9187 15.8848 13.9238 16.1111C12.6501 16.111 11.3762 16.1103 10.1024 16.1115C10.1003 15.6569 10.1021 15.2023 10.1015 14.7477C10.1018 14.0266 10.101 13.3055 10.1019 12.5845C8.90655 12.5854 7.71125 12.584 6.51595 12.5852C6.51586 11.3398 6.51613 10.0944 6.51586 8.84896C7.70641 8.84968 8.89704 8.84887 10.0876 8.84941C10.0861 7.67204 10.0877 6.49476 10.0868 5.31748C11.356 5.31739 12.6251 5.31793 13.8943 5.31721C13.8939 6.49458 13.8933 7.67186 13.8946 8.84914C15.0908 8.84932 16.2872 8.84914 17.4835 8.84923C17.4843 10.0938 17.4829 11.3382 17.4842 12.5827C17.2483 12.5875 17.0122 12.5834 16.7763 12.5847Z" fill="#FF0000"/>
</svg>
