<svg width="24" height="24" viewBox="0 0 24 24" fill="none" xmlns="http://www.w3.org/2000/svg">
<g clip-path="url(#clip0_742_35)">
<path d="M5.77409 12.7717L16.6832 23.6805C17.1091 24.1065 17.7999 24.1065 18.2259 23.6804C18.6519 23.2544 18.6519 22.5637 18.2259 22.1376L8.0882 12.0002L18.2259 1.86222C18.6519 1.43619 18.6519 0.745497 18.2259 0.319461C18.0129 0.106442 17.7337 -3.072e-05 17.4545 -3.06956e-05C17.1753 -3.06712e-05 16.8961 0.106443 16.6831 0.319534L5.77409 11.2289C5.56943 11.4335 5.45453 11.711 5.45453 12.0003C5.45453 12.2896 5.56943 12.5671 5.77409 12.7717Z" fill="white"/>
</g>
<defs>
<clipPath id="clip0_742_35">
<rect width="24" height="24" fill="white" transform="translate(24 24) rotate(180)"/>
</clipPath>
</defs>
</svg>
