<svg width="14" height="14" viewBox="0 0 14 14" fill="none" xmlns="http://www.w3.org/2000/svg">
<g clip-path="url(#clip0_688_504)">
<path d="M3.66683 8.33333C3.85572 8.33333 4.01405 8.26944 4.14183 8.14166C4.26961 8.01388 4.3335 7.85555 4.3335 7.66666C4.3335 7.47777 4.26961 7.31944 4.14183 7.19166C4.01405 7.06388 3.85572 7 3.66683 7C3.47794 7 3.31961 7.06388 3.19183 7.19166C3.06405 7.31944 3.00016 7.47777 3.00016 7.66666C3.00016 7.85555 3.06405 8.01388 3.19183 8.14166C3.31961 8.26944 3.47794 8.33333 3.66683 8.33333ZM3.66683 6.33333C3.85572 6.33333 4.01405 6.26944 4.14183 6.14166C4.26961 6.01388 4.3335 5.85555 4.3335 5.66666C4.3335 5.47777 4.26961 5.31944 4.14183 5.19166C4.01405 5.06388 3.85572 5 3.66683 5C3.47794 5 3.31961 5.06388 3.19183 5.19166C3.06405 5.31944 3.00016 5.47777 3.00016 5.66666C3.00016 5.85555 3.06405 6.01388 3.19183 6.14166C3.31961 6.26944 3.47794 6.33333 3.66683 6.33333ZM3.66683 4.33333C3.85572 4.33333 4.01405 4.26944 4.14183 4.14166C4.26961 4.01388 4.3335 3.85555 4.3335 3.66666C4.3335 3.47777 4.26961 3.31944 4.14183 3.19166C4.01405 3.06388 3.85572 3 3.66683 3C3.47794 3 3.31961 3.06388 3.19183 3.19166C3.06405 3.31944 3.00016 3.47777 3.00016 3.66666C3.00016 3.85555 3.06405 4.01388 3.19183 4.14166C3.31961 4.26944 3.47794 4.33333 3.66683 4.33333ZM5.66683 8.33333H9.00016V7H5.66683V8.33333ZM5.66683 6.33333H11.0002V5H5.66683V6.33333ZM5.66683 4.33333H11.0002V3H5.66683V4.33333ZM0.333496 13.6667V1.66666C0.333496 1.29999 0.464052 0.986106 0.725163 0.724995C0.986274 0.463884 1.30016 0.333328 1.66683 0.333328H12.3335C12.7002 0.333328 13.0141 0.463884 13.2752 0.724995C13.5363 0.986106 13.6668 1.29999 13.6668 1.66666V9.66666C13.6668 10.0333 13.5363 10.3472 13.2752 10.6083C13.0141 10.8694 12.7002 11 12.3335 11H3.00016L0.333496 13.6667ZM2.4335 9.66666H12.3335V1.66666H1.66683V10.4167L2.4335 9.66666Z" fill="white"/>
</g>
<defs>
<clipPath id="clip0_688_504">
<rect width="14" height="14" fill="white"/>
</clipPath>
</defs>
</svg>
