<svg width="60" height="40" viewBox="0 0 60 40" fill="none" xmlns="http://www.w3.org/2000/svg">
<path d="M38.5714 25.9459C38.5714 23.5577 40.4902 21.6216 42.8571 21.6216H55.7143C58.0812 21.6216 60 23.5577 60 25.9459V40H38.5714V25.9459Z" fill="#FFFFFF"/>
<path d="M0 18.3784C0 15.9901 1.91878 14.0541 4.28571 14.0541H17.1429C19.5098 14.0541 21.4286 15.9901 21.4286 18.3784V40H0V18.3784Z" fill="#FFFFFF"/>
<path d="M2.14286 20C2.14286 17.6117 4.06164 15.6757 6.42857 15.6757H15C17.3669 15.6757 19.2857 17.6117 19.2857 20V37.8378H2.14286V20Z" fill="black"/>
<path d="M19.2857 4.32432C19.2857 1.93607 21.2045 0 23.5714 0H36.4286C38.7955 0 40.7143 1.93607 40.7143 4.32432V40H19.2857V4.32432Z" fill="#FFFFFF"/>
<path d="M21.4286 6.48649C21.4286 4.09823 23.3474 2.16216 25.7143 2.16216H34.2857C36.6526 2.16216 38.5714 4.09823 38.5714 6.48649V37.8378H21.4286V6.48649Z" fill="black"/>
<path d="M40.7143 28.1081C40.7143 25.7198 42.6331 23.7838 45 23.7838H53.5714C55.9384 23.7838 57.8571 25.7198 57.8571 28.1081V37.8378H40.7143V28.1081Z" fill="black"/>
<path d="M29.4643 7.6C29.5 7.57838 29.5536 7.56757 29.625 7.56757H30.9214C30.9571 7.56757 30.9857 7.58198 31.0071 7.61081C31.0357 7.63243 31.05 7.66126 31.05 7.6973V15.0054C31.05 15.0414 31.0357 15.0739 31.0071 15.1027C30.9857 15.1243 30.9571 15.1351 30.9214 15.1351H29.6679C29.6321 15.1351 29.6 15.1243 29.5714 15.1027C29.55 15.0739 29.5393 15.0414 29.5393 15.0054V9.08108C29.5393 9.06667 29.5321 9.05225 29.5179 9.03784C29.5036 9.02342 29.4893 9.01982 29.475 9.02703L28.4143 9.31892L28.3714 9.32973C28.3071 9.32973 28.275 9.29009 28.275 9.21081L28.2429 8.28108C28.2429 8.20901 28.275 8.15856 28.3393 8.12973L29.4643 7.6Z" fill="#FFFFFF"/>
<path d="M9.99643 27.8162C9.98214 27.8306 9.97857 27.845 9.98571 27.8595C9.99286 27.8739 10.0071 27.8811 10.0286 27.8811H12.9321C12.9679 27.8811 12.9964 27.8955 13.0179 27.9243C13.0464 27.9459 13.0607 27.9748 13.0607 28.0108V29.0595C13.0607 29.0955 13.0464 29.1279 13.0179 29.1568C12.9964 29.1784 12.9679 29.1892 12.9321 29.1892H8.11071C8.075 29.1892 8.04286 29.1784 8.01429 29.1568C7.99286 29.1279 7.98214 29.0955 7.98214 29.0595V28.0649C7.98214 28 8.00357 27.9459 8.04643 27.9027C8.39643 27.5568 8.75357 27.182 9.11786 26.7784C9.48214 26.3676 9.71071 26.1117 9.80357 26.0108C10.0036 25.773 10.2071 25.5459 10.4143 25.3297C11.0643 24.6018 11.3893 24.0613 11.3893 23.7081C11.3893 23.4559 11.3 23.2504 11.1214 23.0919C10.9429 22.9261 10.7107 22.8432 10.425 22.8432C10.1393 22.8432 9.90714 22.9261 9.72857 23.0919C9.55 23.2504 9.46071 23.4631 9.46071 23.7297V24C9.46071 24.036 9.44643 24.0685 9.41786 24.0973C9.39643 24.1189 9.36786 24.1297 9.33214 24.1297H8.06786C8.03214 24.1297 8 24.1189 7.97143 24.0973C7.95 24.0685 7.93929 24.036 7.93929 24V23.4919C7.96071 23.1027 8.08214 22.7604 8.30357 22.4649C8.525 22.1622 8.81786 21.9315 9.18214 21.773C9.55357 21.6144 9.96786 21.5351 10.425 21.5351C10.9321 21.5351 11.3714 21.6324 11.7429 21.827C12.1214 22.0144 12.4107 22.2703 12.6107 22.5946C12.8179 22.9189 12.9214 23.2793 12.9214 23.6757C12.9214 23.9784 12.8464 24.2883 12.6964 24.6054C12.5464 24.9225 12.3214 25.2649 12.0214 25.6324C11.8 25.9135 11.5607 26.191 11.3036 26.4649C11.0464 26.7387 10.6643 27.1351 10.1571 27.6541L9.99643 27.8162Z" fill="#FFFFFF"/>
<path d="M51.7179 31.5243C51.8607 31.8559 51.9321 32.2378 51.9321 32.6703C51.9321 33.0595 51.8679 33.4198 51.7393 33.7513C51.5679 34.2126 51.2786 34.573 50.8714 34.8324C50.4714 35.0919 49.9964 35.2216 49.4464 35.2216C48.9036 35.2216 48.425 35.0847 48.0107 34.8108C47.6036 34.5369 47.3107 34.1658 47.1321 33.6973C47.0321 33.4162 46.975 33.1135 46.9607 32.7892C46.9607 32.7027 47.0036 32.6595 47.0893 32.6595H48.3536C48.4393 32.6595 48.4821 32.7027 48.4821 32.7892C48.5107 33.027 48.55 33.2036 48.6 33.3189C48.6643 33.5063 48.7679 33.6541 48.9107 33.7622C49.0607 33.8631 49.2357 33.9135 49.4357 33.9135C49.8357 33.9135 50.1107 33.7369 50.2607 33.3838C50.3607 33.1676 50.4107 32.9153 50.4107 32.627C50.4107 32.2883 50.3571 32.0108 50.25 31.7946C50.0857 31.4559 49.8107 31.2865 49.425 31.2865C49.3464 31.2865 49.2643 31.3117 49.1786 31.3622C49.0929 31.4054 48.9893 31.4703 48.8679 31.5568C48.8393 31.5784 48.8107 31.5892 48.7821 31.5892C48.7393 31.5892 48.7071 31.5676 48.6857 31.5243L48.0536 30.627C48.0393 30.6054 48.0321 30.5802 48.0321 30.5514C48.0321 30.5081 48.0464 30.4721 48.075 30.4432L49.7786 28.9405C49.7929 28.9261 49.7964 28.9117 49.7893 28.8973C49.7893 28.8829 49.7786 28.8757 49.7571 28.8757H47.2393C47.2036 28.8757 47.1714 28.8649 47.1429 28.8432C47.1214 28.8144 47.1107 28.782 47.1107 28.7459V27.6973C47.1107 27.6613 47.1214 27.6324 47.1429 27.6108C47.1714 27.582 47.2036 27.5676 47.2393 27.5676H51.7071C51.7429 27.5676 51.7714 27.582 51.7929 27.6108C51.8214 27.6324 51.8357 27.6613 51.8357 27.6973V28.8865C51.8357 28.9441 51.8107 28.9982 51.7607 29.0486L50.3571 30.3459C50.3429 30.3604 50.3357 30.3748 50.3357 30.3892C50.3429 30.4036 50.3607 30.4108 50.3893 30.4108C51.0107 30.5333 51.4536 30.9045 51.7179 31.5243Z" fill="#FFFFFF"/>
</svg>
