<svg width="40" height="40" viewBox="0 0 40 40" fill="none" xmlns="http://www.w3.org/2000/svg">
<g clip-path="url(#clip0_577_25)">
<path d="M31.1299 39.9889L8.90766 40.01C4.01877 40.0144 0.01544 36.0189 0.00988441 31.13L-0.0112268 8.90778C-0.0156712 4.01889 3.97989 0.015562 8.86877 0.0100065L31.091 -0.0111047C35.9799 -0.0155491 39.9832 3.98001 39.9888 8.8689L40.0099 31.0911C40.0154 35.9811 36.0188 39.9844 31.1299 39.9889Z" fill="url(#paint0_radial_577_25)"/>
<path d="M31.1299 39.9889L8.90766 40.01C4.01877 40.0144 0.01544 36.0189 0.00988441 31.13L-0.0112268 8.90778C-0.0156712 4.01889 3.97989 0.015562 8.86877 0.0100065L31.091 -0.0111047C35.9799 -0.0155491 39.9832 3.98001 39.9888 8.8689L40.0099 31.0911C40.0154 35.9811 36.0188 39.9844 31.1299 39.9889Z" fill="url(#paint1_radial_577_25)"/>
<path d="M19.9999 27.7777C15.7122 27.7777 12.2222 24.2888 12.2222 19.9999C12.2222 15.7111 15.7122 12.2222 19.9999 12.2222C24.2877 12.2222 27.7777 15.7111 27.7777 19.9999C27.7777 24.2888 24.2877 27.7777 19.9999 27.7777ZM19.9999 14.4444C16.9366 14.4444 14.4444 16.9366 14.4444 19.9999C14.4444 23.0633 16.9366 25.5555 19.9999 25.5555C23.0633 25.5555 25.5555 23.0633 25.5555 19.9999C25.5555 16.9366 23.0633 14.4444 19.9999 14.4444Z" fill="white"/>
<path d="M28.3334 13.3333C29.2539 13.3333 30.0001 12.5871 30.0001 11.6667C30.0001 10.7462 29.2539 10 28.3334 10C27.4129 10 26.6667 10.7462 26.6667 11.6667C26.6667 12.5871 27.4129 13.3333 28.3334 13.3333Z" fill="white"/>
<path d="M26.6668 34.4444H13.3334C9.04566 34.4444 5.55566 30.9555 5.55566 26.6667V13.3333C5.55566 9.04443 9.04566 5.55554 13.3334 5.55554H26.6668C30.9546 5.55554 34.4446 9.04443 34.4446 13.3333V26.6667C34.4446 30.9555 30.9546 34.4444 26.6668 34.4444ZM13.3334 7.77776C10.2701 7.77776 7.77789 10.27 7.77789 13.3333V26.6667C7.77789 29.73 10.2701 32.2222 13.3334 32.2222H26.6668C29.7301 32.2222 32.2223 29.73 32.2223 26.6667V13.3333C32.2223 10.27 29.7301 7.77776 26.6668 7.77776H13.3334Z" fill="white"/>
</g>
<defs>
<radialGradient id="paint0_radial_577_25" cx="0" cy="0" r="1" gradientUnits="userSpaceOnUse" gradientTransform="translate(14.8666 40.0389) scale(49.8878 49.8878)">
<stop stop-color="#FFDD55"/>
<stop offset="0.328" stop-color="#FF543F"/>
<stop offset="0.348" stop-color="#FC5245"/>
<stop offset="0.504" stop-color="#E64771"/>
<stop offset="0.643" stop-color="#D53E91"/>
<stop offset="0.761" stop-color="#CC39A4"/>
<stop offset="0.841" stop-color="#C837AB"/>
</radialGradient>
<radialGradient id="paint1_radial_577_25" cx="0" cy="0" r="1" gradientUnits="userSpaceOnUse" gradientTransform="translate(6.42877 -0.510769) scale(33.1256 22.0716)">
<stop stop-color="#4168C9"/>
<stop offset="0.999" stop-color="#4168C9" stop-opacity="0"/>
</radialGradient>
<clipPath id="clip0_577_25">
<rect width="40" height="40" fill="white"/>
</clipPath>
</defs>
</svg>
