<svg width="40" height="40" viewBox="0 0 120 120" fill="none" xmlns="http://www.w3.org/2000/svg">
<path d="M72.7254 2.77646C68.7749 1.53015 64.5421 0.848206 60.1683 0.848206C47.3995 0.848206 35.9711 6.60944 28.3286 15.6863L47.9639 32.194L72.7254 2.77646Z" fill="#1A73E8"/>
<path d="M28.3286 15.6863C22.0334 23.1633 18.585 32.6255 18.5933 42.3997C18.5933 50.2067 20.1453 56.5558 22.7084 62.223L47.9638 32.194L28.3286 15.6863Z" fill="#EA4335"/>
<path d="M60.1682 26.5269C63.1995 26.5296 66.1668 27.3985 68.7208 29.0312C71.2747 30.6639 73.309 32.9924 74.5839 35.7425C75.8589 38.4926 76.3215 41.5497 75.9172 44.5539C75.513 47.558 74.2587 50.3841 72.3021 52.6993L97.0401 23.2817C91.9624 13.4988 83.2084 6.13189 72.7018 2.79996L47.9873 32.2175C49.4765 30.4342 51.3395 29 53.4444 28.0166C55.5494 27.0332 57.8449 26.5246 60.1682 26.5269Z" fill="#4285F4"/>
<path d="M60.1683 58.3195C51.3971 58.3195 44.272 51.1944 44.272 42.4232C44.2617 38.6885 45.5785 35.0715 47.9874 32.2176L22.7085 62.2465C27.0353 71.8172 34.2075 79.5067 41.5912 89.195L72.3022 52.6993C70.8101 54.4623 68.9514 55.8784 66.8558 56.8491C64.7601 57.8198 62.4779 58.3216 60.1683 58.3195Z" fill="#FBBC04"/>
<path d="M71.6908 99.142C85.5648 77.4609 101.72 67.608 101.72 42.3997C101.72 35.4862 100.027 28.9725 97.0402 23.2347L41.6147 89.195C43.9663 92.2755 46.3413 95.5441 48.6458 99.1655C57.0643 112.193 54.7363 120 60.1683 120C65.6003 120 63.2723 112.169 71.6908 99.142Z" fill="#34A853"/>
</svg>
