<svg width="40" height="40" viewBox="0 0 40 40" fill="none" xmlns="http://www.w3.org/2000/svg">
<g clip-path="url(#clip0_725_8)">
<path d="M10 9.10486C15.5176 9.10486 20 13.5873 20 19.1049V20.0261H0.921224C0.426432 20.0261 0.0260417 19.6257 0 19.1049C0 13.584 4.48242 9.10486 10 9.10486Z" fill="#F6B704"/>
<path d="M30.8952 10C30.8952 15.5176 26.4128 20 20.8952 20H20V0.921224C20 0.423177 20.4004 0 20.8952 0C26.4388 0 30.8952 4.48242 30.8952 10Z" fill="#E54335"/>
<path d="M30 30.9212C24.4824 30.9212 20 26.4388 20 20.9212V20H39.0788C39.5736 20 40 20.4004 40 20.8952C40 26.4388 35.5176 30.9212 30 30.9212Z" fill="#4280EF"/>
<path d="M9.10482 30C9.10482 24.4824 13.5872 20 19.1048 20H20V39.0788C20 39.5736 19.5996 39.974 19.0788 40C13.5612 40 9.10482 35.5176 9.10482 30Z" fill="#34A353"/>
</g>
<defs>
<clipPath id="clip0_725_8">
<rect width="40" height="40" fill="white"/>
</clipPath>
</defs>
</svg>
