<svg width="40" height="30" viewBox="0 0 40 30" fill="none" xmlns="http://www.w3.org/2000/svg">
<g clip-path="url(#clip0_402_73)">
<path d="M20.1275 0.997559H20.35C22.405 1.00506 32.8175 1.08006 35.625 1.83506C36.4738 2.06548 37.2472 2.51461 37.8679 3.13758C38.4887 3.76054 38.9351 4.53552 39.1625 5.38506C39.415 6.33506 39.5925 7.59256 39.7125 8.89006L39.7375 9.15006L39.7925 9.80006L39.8125 10.0601C39.975 12.3451 39.995 14.4851 39.9975 14.9526V15.1401C39.995 15.6251 39.9725 17.9101 39.7925 20.2901L39.7725 20.5526L39.75 20.8126C39.625 22.2426 39.44 23.6626 39.1625 24.7076C38.9351 25.5571 38.4887 26.3321 37.8679 26.955C37.2472 27.578 36.4738 28.0271 35.625 28.2576C32.725 29.0376 21.7025 29.0926 20.175 29.0951H19.82C19.0475 29.0951 15.8525 29.0801 12.5025 28.9651L12.0775 28.9501L11.86 28.9401L11.4325 28.9226L11.005 28.9051C8.23003 28.7826 5.58753 28.5851 4.37003 28.2551C3.5216 28.0249 2.7484 27.5761 2.12766 26.9536C1.50691 26.3311 1.06034 25.5566 0.832531 24.7076C0.555031 23.6651 0.370031 22.2426 0.245031 20.8126L0.225031 20.5501L0.205031 20.2901C0.0809391 18.5961 0.0125688 16.8985 3.05176e-05 15.2001L3.05176e-05 14.8926C0.00503052 14.3551 0.0250305 12.4976 0.160031 10.4476L0.177531 10.1901L0.185031 10.0601L0.205031 9.80006L0.260031 9.15006L0.285031 8.89006C0.405031 7.59256 0.58253 6.33256 0.83503 5.38506C1.06246 4.53552 1.50886 3.76054 2.12963 3.13758C2.7504 2.51461 3.5238 2.06548 4.37253 1.83506C5.59003 1.51006 8.23253 1.31006 11.0075 1.18506L11.4325 1.16756L11.8625 1.15256L12.0775 1.14506L12.505 1.12756C14.8843 1.05107 17.2645 1.00856 19.645 1.00006L20.1275 0.997559ZM16 9.02256V21.0676L26.3925 15.0476L16 9.02256Z" fill="url(#paint0_linear_402_73)"/>
</g>
<defs>
<linearGradient id="paint0_linear_402_73" x1="2.49999" y1="2.875" x2="38.125" y2="26.625" gradientUnits="userSpaceOnUse">
<stop stop-color="#006300"/>
<stop offset="1" stop-color="#097A07"/>
</linearGradient>
<clipPath id="clip0_402_73">
<rect width="40" height="30" fill="white"/>
</clipPath>
</defs>
</svg>
