<svg width="40" height="40" viewBox="0 0 40 40" fill="none" xmlns="http://www.w3.org/2000/svg">
<g clip-path="url(#clip0_582_31)">
<rect width="40" height="40"/>
<path d="M34.1712 5.81282C30.411 2.06655 25.411 0.00228568 20.0839 0C9.10645 0 0.173058 8.89125 0.168664 19.8199C0.167385 23.3132 1.08419 26.7233 2.82679 29.7291L0.00146484 40L10.5587 37.2439C13.4675 38.8233 16.7425 39.6555 20.0753 39.6568H20.0838H20.0839C31.0595 39.6568 39.9942 30.764 39.9989 19.8359C40.0007 14.5394 37.931 9.55935 34.1712 5.81282ZM20.0839 36.3092H20.0774C17.1067 36.3076 14.1936 35.5136 11.6526 34.0124L11.0479 33.6555L4.78296 35.2909L6.45561 29.2117L6.06162 28.5885C4.40455 25.9653 3.52976 22.9339 3.53101 19.8211C3.53465 10.7376 10.9597 3.34778 20.0901 3.34778C24.5115 3.34961 28.6671 5.06544 31.7925 8.17922C34.9177 11.293 36.6375 15.4323 36.6362 19.8345C36.6324 28.9183 29.207 36.3092 20.0839 36.3092Z" fill="#E0E0E0"/>
<path d="M0.915527 38.8604L3.6118 29.0587C1.94837 26.1901 1.07361 22.9356 1.07466 19.6024C1.07902 9.17324 9.60442 0.688385 20.0795 0.688385C25.1635 0.690671 29.9352 2.66054 33.5229 6.23577C37.1113 9.81098 39.0863 14.5632 39.0842 19.6172C39.0799 30.0467 30.554 38.5323 20.0802 38.5323H20.0718C16.8912 38.5313 13.766 37.7364 10.9904 36.2303L0.915527 38.8604Z" fill="url(#paint0_linear_582_31)"/>
<path fill-rule="evenodd" clip-rule="evenodd" d="M15.1623 11.4054C14.7939 10.5898 14.406 10.5735 14.0555 10.5592C13.7687 10.547 13.4405 10.5477 13.1128 10.5477C12.7848 10.5477 12.2519 10.6704 11.8012 11.1605C11.3502 11.6505 10.0793 12.8352 10.0793 15.2446C10.0793 17.6543 11.8422 19.9826 12.0879 20.3096C12.3339 20.6361 15.4908 25.7386 20.4906 27.7016C24.6458 29.3329 25.4914 29.0084 26.3933 28.9268C27.2952 28.8452 29.3035 27.7424 29.7134 26.5988C30.1234 25.4554 30.1234 24.4753 30.0004 24.2705C29.8774 24.0664 29.5494 23.9439 29.0575 23.6991C28.5655 23.4542 26.1473 22.2692 25.6963 22.106C25.2454 21.9427 24.9174 21.8611 24.5894 22.3514C24.2615 22.8412 23.3193 23.9439 23.0323 24.2705C22.7454 24.5978 22.4584 24.6386 21.9664 24.3937C21.4745 24.148 19.8902 23.6314 18.0108 21.9631C16.5485 20.6651 15.5613 19.0621 15.2743 18.5718C14.9873 18.082 15.2436 17.8167 15.4903 17.5726C15.7112 17.3532 15.9823 17.0009 16.2282 16.7149C16.4737 16.4289 16.5557 16.2249 16.7197 15.8983C16.8837 15.5713 16.8017 15.2854 16.6787 15.0405C16.5557 14.7956 15.5997 12.3737 15.1623 11.4054Z" fill="white"/>
<path d="M34.0085 5.74984C30.2914 2.04657 25.3488 0.00604148 20.0828 0.00372314C9.23142 0.00372314 0.400583 8.7929 0.396221 19.5961C0.394942 23.0494 1.30122 26.4202 3.02381 29.3916L0.230957 39.5445L10.667 36.8201C13.5424 38.3812 16.7798 39.204 20.0744 39.2052H20.0828H20.0828C30.9325 39.2052 39.7646 30.4145 39.7692 19.6119C39.771 14.3762 37.725 9.45336 34.0085 5.74984ZM20.0828 35.8961H20.0765C17.1398 35.8946 14.2601 35.1096 11.7483 33.6257L11.1505 33.2729L4.95755 34.8895L6.61098 28.8801L6.22152 28.2641C4.58347 25.671 3.71872 22.6743 3.71999 19.5974C3.72357 10.6181 11.0634 3.31313 20.089 3.31313C24.4597 3.31493 28.5675 5.01107 31.6571 8.0891C34.7464 11.1671 36.4465 15.2589 36.4452 19.6107C36.4413 28.5901 29.1012 35.8961 20.0828 35.8961Z" fill="white"/>
</g>
<defs>
<linearGradient id="paint0_linear_582_31" x1="19.9999" y1="38.8604" x2="19.9999" y2="0.688449" gradientUnits="userSpaceOnUse">
<stop stop-color="#41C42A"/>
<stop offset="1" stop-color="#40C02D"/>
</linearGradient>
<clipPath id="clip0_582_31">
<rect width="40" height="40" fill="white"/>
</clipPath>
</defs>
</svg>
