<svg width="40" height="28" viewBox="0 0 120 84" fill="none" xmlns="http://www.w3.org/2000/svg">
<path d="M113.85 14.856C112.556 9.95165 108.742 6.08931 103.898 4.77853C95.1212 2.39636 59.9228 2.39636 59.9228 2.39636C59.9228 2.39636 24.7248 2.39636 15.9472 4.77853C11.1036 6.08931 7.28892 9.95165 5.9953 14.856C3.64355 23.7452 3.64355 42.2924 3.64355 42.2924C3.64355 42.2924 3.64355 60.8387 5.9953 69.7289C7.28892 74.6337 11.1036 78.4951 15.9467 79.8073C24.7243 82.1885 59.9223 82.1885 59.9223 82.1885C59.9223 82.1885 95.1207 82.1885 103.898 79.8073C108.741 78.4956 112.555 74.6337 113.85 69.7294C116.202 60.8392 116.202 42.2929 116.202 42.2929C116.202 42.2929 116.202 23.7457 113.85 14.8564" fill="#FF0000"/>
<path d="M48.4111 59.1317L77.8297 42.2934L48.4111 25.4531V59.1317Z" fill="white"/>
</svg>
