<svg width="28" height="40" viewBox="0 0 28 40" fill="none" xmlns="http://www.w3.org/2000/svg">
<g clip-path="url(#clip0_640_169)">
<path d="M18.2418 0.925466C16.925 0.510029 15.514 0.282715 14.0561 0.282715C9.79984 0.282715 5.99037 2.20313 3.44287 5.22875L9.98797 10.7313L18.2418 0.925466Z" fill="#1A73E8"/>
<path d="M3.44286 5.22876C1.34446 7.72109 0.194992 10.8752 0.197759 14.1332C0.197759 16.7356 0.715092 18.8519 1.56946 20.741L9.98793 10.7313L3.44286 5.22876Z" fill="#EA4335"/>
<path d="M14.0559 8.84233C15.0663 8.84323 16.0554 9.13286 16.9068 9.6771C17.7581 10.2213 18.4362 10.9975 18.8611 11.9142C19.2861 12.8309 19.4403 13.8499 19.3056 14.8513C19.1708 15.8527 18.7527 16.7947 18.1005 17.5665L26.3465 7.7606C24.654 4.49963 21.736 2.04399 18.2338 0.93335L9.99561 10.7392C10.492 10.1448 11.113 9.6667 11.8146 9.3389C12.5163 9.0111 13.2815 8.84156 14.0559 8.84233Z" fill="#4285F4"/>
<path d="M14.0559 19.4399C11.1322 19.4399 8.75717 17.0649 8.75717 14.1411C8.75374 12.8962 9.19267 11.6906 9.99564 10.7393L1.56934 20.7489C3.0116 23.9391 5.40234 26.5023 7.86357 29.7317L18.1006 17.5665C17.6032 18.1542 16.9836 18.6262 16.2851 18.9498C15.5865 19.2733 14.8258 19.4406 14.0559 19.4399Z" fill="#FBBC04"/>
<path d="M17.897 33.0473C22.5216 25.8203 27.9067 22.536 27.9067 14.1332C27.9067 11.8287 27.3423 9.65747 26.3467 7.74487L7.87158 29.7316C8.65545 30.7585 9.44712 31.848 10.2153 33.0551C13.0214 37.3976 12.2454 40 14.0561 40C15.8668 40 15.0908 37.3896 17.897 33.0473Z" fill="#34A853"/>
</g>
<defs>
<clipPath id="clip0_640_169">
<rect width="28" height="40" fill="white"/>
</clipPath>
</defs>
</svg>
